<svg width="301" height="398" viewBox="0 0 301 398" fill="none" xmlns="http://www.w3.org/2000/svg">
<rect width="300" height="300" rx="70" fill="#73CF8A"/>
<path d="M24.9785 351.955H12.7559L12.7148 343.26H23.1328C24.7734 343.26 26.1133 342.986 27.1523 342.439C28.2188 341.865 28.998 341.031 29.4902 339.938C30.0098 338.816 30.2695 337.463 30.2695 335.877C30.2695 334.045 30.0371 332.582 29.5723 331.488C29.1074 330.367 28.3555 329.547 27.3164 329.027C26.2773 328.508 24.9238 328.248 23.2559 328.248H16.8574V378H4.83984V318.281H23.2559C26.2363 318.281 28.9023 318.609 31.2539 319.266C33.6055 319.922 35.6016 320.92 37.2422 322.26C38.8828 323.6 40.127 325.295 40.9746 327.346C41.8496 329.396 42.2871 331.816 42.2871 334.605C42.2871 337.066 41.7949 339.336 40.8105 341.414C39.8262 343.492 38.2812 345.188 36.1758 346.5C34.0977 347.812 31.377 348.551 28.0137 348.715L24.9785 351.955ZM24.5684 378H9.35156L14.1504 368.074H24.5684C26.1543 368.074 27.4395 367.732 28.4238 367.049C29.4082 366.365 30.1191 365.449 30.5566 364.301C30.9941 363.125 31.2129 361.785 31.2129 360.281C31.2129 358.586 31.0078 357.109 30.5977 355.852C30.2148 354.594 29.5723 353.637 28.6699 352.98C27.7676 352.297 26.5508 351.955 25.0195 351.955H14.6836L14.7656 343.26H27.3164L30.1465 346.705C33.3457 346.596 35.9023 347.211 37.8164 348.551C39.7305 349.863 41.0977 351.586 41.918 353.719C42.7656 355.824 43.1895 358.066 43.1895 360.445C43.1895 364.273 42.4648 367.5 41.0156 370.125C39.5938 372.723 37.502 374.691 34.7402 376.031C31.9785 377.344 28.5879 378 24.5684 378ZM69.3164 378.82C66.2812 378.82 63.5879 378.355 61.2363 377.426C58.9121 376.496 56.9434 375.156 55.3301 373.406C53.7168 371.629 52.4863 369.482 51.6387 366.967C50.791 364.451 50.3672 361.58 50.3672 358.354V354.703C50.3672 351.094 50.7773 347.936 51.5977 345.229C52.418 342.494 53.5801 340.197 55.084 338.338C56.5879 336.479 58.4336 335.098 60.6211 334.195C62.8359 333.266 65.3379 332.801 68.127 332.801C70.916 332.801 73.3633 333.266 75.4688 334.195C77.6016 335.098 79.3652 336.465 80.7598 338.297C82.1543 340.102 83.207 342.344 83.918 345.023C84.6289 347.703 84.9844 350.82 84.9844 354.375V359.625H55.248V351.545H73.7051V350.52C73.7051 348.715 73.5137 347.211 73.1309 346.008C72.748 344.777 72.1465 343.861 71.3262 343.26C70.5059 342.658 69.4121 342.357 68.0449 342.357C66.8965 342.357 65.9258 342.59 65.1328 343.055C64.3398 343.52 63.7109 344.244 63.2461 345.229C62.7812 346.213 62.4395 347.498 62.2207 349.084C62.002 350.643 61.8926 352.516 61.8926 354.703V358.354C61.8926 360.404 62.0703 362.127 62.4258 363.521C62.7812 364.889 63.3008 366.01 63.9844 366.885C64.6953 367.732 65.5566 368.348 66.5684 368.73C67.5801 369.086 68.7559 369.264 70.0957 369.264C72.1191 369.264 73.9375 368.908 75.5508 368.197C77.1914 367.459 78.5859 366.461 79.7344 365.203L84.3281 372.176C83.5352 373.215 82.4414 374.254 81.0469 375.293C79.6523 376.332 77.9844 377.18 76.043 377.836C74.1016 378.492 71.8594 378.82 69.3164 378.82ZM113.818 328.945L100.98 378H88.3066L106.969 318.281H114.885L113.818 328.945ZM123.949 378L111.029 328.945L109.84 318.281H117.879L136.705 378H123.949ZM124.4 355.729V365.695H97.4531V355.729H124.4ZM157.869 369.264C158.936 369.264 159.852 369.045 160.617 368.607C161.41 368.17 162.012 367.459 162.422 366.475C162.832 365.49 163.051 364.219 163.078 362.66H173.865C173.865 365.996 173.154 368.881 171.732 371.314C170.338 373.721 168.451 375.58 166.072 376.893C163.721 378.178 161.055 378.82 158.074 378.82C155.094 378.82 152.496 378.342 150.281 377.385C148.066 376.428 146.234 375.033 144.785 373.201C143.363 371.369 142.283 369.141 141.545 366.516C140.834 363.863 140.479 360.828 140.479 357.41V354.17C140.479 350.807 140.834 347.799 141.545 345.146C142.283 342.494 143.363 340.252 144.785 338.42C146.234 336.588 148.053 335.193 150.24 334.236C152.455 333.279 155.053 332.801 158.033 332.801C161.232 332.801 164.008 333.471 166.359 334.811C168.711 336.123 170.543 338.064 171.855 340.635C173.195 343.205 173.865 346.377 173.865 350.15H163.078C163.051 348.455 162.846 347.047 162.463 345.926C162.107 344.777 161.547 343.902 160.781 343.301C160.043 342.672 159.059 342.357 157.828 342.357C156.543 342.357 155.504 342.631 154.711 343.178C153.945 343.697 153.357 344.463 152.947 345.475C152.564 346.459 152.305 347.689 152.168 349.166C152.031 350.643 151.963 352.311 151.963 354.17V357.41C151.963 359.406 152.018 361.143 152.127 362.619C152.264 364.068 152.523 365.299 152.906 366.311C153.316 367.295 153.904 368.033 154.67 368.525C155.463 369.018 156.529 369.264 157.869 369.264ZM199.828 333.621V342.275H177.188V333.621H199.828ZM182.396 322.67H193.84V364.465C193.84 365.695 193.963 366.639 194.209 367.295C194.455 367.951 194.824 368.416 195.316 368.689C195.836 368.936 196.52 369.059 197.367 369.059C197.941 369.059 198.475 369.031 198.967 368.977C199.459 368.895 199.828 368.812 200.074 368.73V377.713C199.172 378.068 198.215 378.342 197.203 378.533C196.219 378.725 195.043 378.82 193.676 378.82C191.379 378.82 189.383 378.383 187.688 377.508C186.02 376.633 184.721 375.238 183.791 373.324C182.861 371.383 182.396 368.84 182.396 365.695V322.67ZM218.285 333.621V378H206.76V333.621H218.285ZM206.227 322.137C206.227 320.359 206.787 318.896 207.908 317.748C209.057 316.572 210.588 315.984 212.502 315.984C214.443 315.984 215.975 316.572 217.096 317.748C218.217 318.896 218.777 320.359 218.777 322.137C218.777 323.887 218.203 325.35 217.055 326.525C215.934 327.674 214.43 328.248 212.543 328.248C210.602 328.248 209.057 327.674 207.908 326.525C206.787 325.35 206.227 323.887 206.227 322.137ZM240.475 369.141L247.611 333.621H259.588L247.406 378H240.229L240.475 369.141ZM236.25 333.621L243.51 369.182L243.633 378H236.414L224.232 333.621H236.25ZM282.434 378.82C279.398 378.82 276.705 378.355 274.354 377.426C272.029 376.496 270.061 375.156 268.447 373.406C266.834 371.629 265.604 369.482 264.756 366.967C263.908 364.451 263.484 361.58 263.484 358.354V354.703C263.484 351.094 263.895 347.936 264.715 345.229C265.535 342.494 266.697 340.197 268.201 338.338C269.705 336.479 271.551 335.098 273.738 334.195C275.953 333.266 278.455 332.801 281.244 332.801C284.033 332.801 286.48 333.266 288.586 334.195C290.719 335.098 292.482 336.465 293.877 338.297C295.271 340.102 296.324 342.344 297.035 345.023C297.746 347.703 298.102 350.82 298.102 354.375V359.625H268.365V351.545H286.822V350.52C286.822 348.715 286.631 347.211 286.248 346.008C285.865 344.777 285.264 343.861 284.443 343.26C283.623 342.658 282.529 342.357 281.162 342.357C280.014 342.357 279.043 342.59 278.25 343.055C277.457 343.52 276.828 344.244 276.363 345.229C275.898 346.213 275.557 347.498 275.338 349.084C275.119 350.643 275.01 352.516 275.01 354.703V358.354C275.01 360.404 275.188 362.127 275.543 363.521C275.898 364.889 276.418 366.01 277.102 366.885C277.812 367.732 278.674 368.348 279.686 368.73C280.697 369.086 281.873 369.264 283.213 369.264C285.236 369.264 287.055 368.908 288.668 368.197C290.309 367.459 291.703 366.461 292.852 365.203L297.445 372.176C296.652 373.215 295.559 374.254 294.164 375.293C292.77 376.332 291.102 377.18 289.16 377.836C287.219 378.492 284.977 378.82 282.434 378.82Z" fill="#73CF8A"/>
<path d="M181.385 71.8768C194.385 71.8768 204.923 61.3833 204.923 48.4384C204.923 35.4936 194.385 25 181.385 25C168.385 25 157.846 35.4936 157.846 48.4384C157.846 61.3833 168.385 71.8768 181.385 71.8768ZM103.752 180.021L96.4941 196.877H63.6923C55.0272 196.877 48 203.874 48 212.502C48 221.131 55.0272 228.128 63.6923 228.128H101.673C111.112 228.128 119.611 222.542 123.303 213.923L127.614 203.903L122.382 200.827C113.888 195.832 107.641 188.439 103.752 180.021ZM236.308 134.374H214.716L201.937 108.372C195.807 95.8963 184.552 86.7749 171.641 83.4984L136.784 73.1757C122.906 69.8553 108.455 72.9071 97.1414 81.5452L77.6879 96.3944C70.8078 101.644 69.5034 111.449 74.7848 118.3C80.0662 125.15 89.9083 126.435 96.7835 121.19L116.247 106.341C120.008 103.465 124.799 102.435 128.639 103.343L135.847 105.477L117.478 148.149C111.289 162.544 116.835 179.405 130.375 187.365L172.048 211.863L158.577 254.701C155.988 262.934 160.592 271.699 168.86 274.277C170.425 274.766 172.004 275 173.558 275C180.232 275 186.421 270.718 188.525 264.038L204.04 214.69C206.939 204.548 202.623 193.654 193.428 188.131L163.397 170.484L178.751 132.26L188.691 152.49C192.614 160.469 200.912 165.621 209.832 165.621H236.308C244.973 165.621 252 158.623 252 149.995C252 141.367 244.973 134.374 236.308 134.374Z" fill="#1D3424"/>
</svg>
